# xmcd
#
# Track frame offsets:
# 150
# 13671
# 29990
# 47987
# 60813
# 78373
# 94584
# 112399
# 127490
# 142509
# 159731
#
# Disc length: 2338 seconds
#
#
# Revision: 0
# Processed by: cddbd v1.5.2PL0 Copyright (c) Steve Scherf et al.
# Submitted via: FreeRIP 2.951 
#
DISCID=9709200b
DTITLE=Big Road - Refugees in the Promised land
DYEAR=2006
DGENRE=Country
TTITLE0=Love (can seriously damage your heart)
TTITLE1=She flies
TTITLE2=Sweet Joanna
TTITLE3=One for the road
TTITLE4=200 Nights
TTITLE5=Long gone train
TTITLE6=On the rebound
TTITLE7=Silver and Gold
TTITLE8=Memory lane
TTITLE9=Last of you
TTITLE10=Autumn story
EXTD=
EXTT0=
EXTT1=
EXTT2=
EXTT3=
EXTT4=
EXTT5=
EXTT6=
EXTT7=
EXTT8=
EXTT9=
EXTT10=
PLAYORDER=
